# 3ds Max Wavefront OBJ Exporter v0.97b - (c)2007 guruware
# File Created: 18.06.2015 13:39:13

mtllib low poly sword.mtl

#
# object Box001
#

v  -17.0202 33.8527 5.8814
v  -17.0202 33.8527 -5.8814
v  0.5098 33.0209 -10.7002
v  0.5098 33.0209 10.7002
v  18.0397 33.8527 -5.8814
v  18.0397 33.8527 5.8814
v  -17.0202 43.9674 5.8814
v  0.5098 44.7992 10.7002
v  0.5098 44.7992 -10.7002
v  -17.0202 43.9674 -5.8814
v  18.0397 43.9674 5.8814
v  18.0397 43.9674 -5.8814
v  -4.5175 13.0195 0.0000
v  0.5098 13.0195 3.7084
v  0.5098 23.2002 5.1675
v  -7.0279 23.2002 0.0000
v  0.5098 33.3809 3.7084
v  -4.5175 33.3809 0.0000
v  5.5371 13.0195 -0.0000
v  8.0475 23.2002 -0.0000
v  5.5371 33.3809 -0.0000
v  0.5098 13.0195 -3.7084
v  0.5098 23.2002 -5.1675
v  0.5098 33.3809 -3.7084
v  -7.6496 5.8303 0.0000
v  0.5354 3.5920 -0.0000
v  0.5098 5.8303 8.1594
v  -4.5184 13.0142 0.0000
v  0.5098 13.0142 3.6918
v  5.5380 13.0142 -0.0000
v  0.5098 13.0142 -3.6918
v  0.5098 12.4484 8.1594
v  -7.6496 12.4484 0.0000
v  8.6692 5.8303 -0.0000
v  8.6692 12.4484 -0.0000
v  0.5098 5.8303 -8.1594
v  0.5098 12.4484 -8.1594
v  0.5098 130.4019 -0.0000
v  -16.2718 111.0479 -0.1904
v  0.7002 111.0479 4.4318
v  17.2913 111.0479 0.1904
v  0.3194 111.0479 -4.4318
v  -8.8948 44.2435 -0.1904
v  0.7002 44.2435 4.4318
v  0.3194 44.2435 -4.4318
v  9.9144 44.2435 0.1904
# 46 vertices

vn -0.1304 -0.9915 -0.0000
vn 0.1304 -0.9915 -0.0000
vn -0.1304 0.9915 -0.0000
vn 0.1304 0.9915 -0.0000
vn -0.2651 0.0000 0.9642
vn 0.0000 0.0000 1.0000
vn 0.2651 0.0000 0.9642
vn 1.0000 0.0000 -0.0000
vn 0.2651 0.0000 -0.9642
vn -0.0000 0.0000 -1.0000
vn 0.0000 0.0000 -1.0000
vn -0.2651 0.0000 -0.9642
vn -1.0000 0.0000 -0.0000
vn -0.5877 -0.0433 0.8080
vn -0.5931 -0.0416 0.8041
vn -0.5674 -0.0032 0.8234
vn -0.5675 -0.0031 0.8234
vn -0.5874 0.0508 0.8077
vn -0.5928 0.0528 0.8036
vn 0.5874 -0.0508 0.8077
vn 0.5928 -0.0528 0.8036
vn 0.5675 0.0031 0.8234
vn 0.5674 0.0032 0.8234
vn 0.5877 0.0433 0.8080
vn 0.5931 0.0416 0.8041
vn 0.5877 -0.0433 -0.8080
vn 0.5931 -0.0416 -0.8041
vn 0.5674 -0.0032 -0.8234
vn 0.5675 -0.0031 -0.8234
vn 0.5874 0.0508 -0.8077
vn 0.5928 0.0528 -0.8036
vn -0.5874 -0.0508 -0.8077
vn -0.5928 -0.0528 -0.8036
vn -0.5675 0.0031 -0.8234
vn -0.5674 0.0032 -0.8234
vn -0.5877 0.0433 -0.8080
vn -0.5931 0.0416 -0.8041
vn -0.5170 -0.6823 0.5170
vn -0.0000 1.0000 -0.0000
vn -1.0000 0.0000 0.0000
vn -0.3349 0.8654 0.3726
vn 0.3349 0.8654 0.3726
vn 0.3349 0.8654 -0.3726
vn -0.3349 0.8654 -0.3726
vn -0.5170 -0.6823 -0.5170
vn 0.5185 -0.6800 0.5185
vn 0.5185 -0.6800 -0.5185
vn -0.2620 0.0786 0.9619
vn 0.2469 0.0807 0.9657
vn 0.2620 0.0786 -0.9619
vn -0.2469 0.0807 -0.9657
vn -0.3286 -0.0065 0.9444
vn -0.3123 -0.0062 -0.9500
vn 0.3286 -0.0065 -0.9444
vn 0.3123 -0.0062 0.9500
# 55 vertex normals

vt 0.1207 0.9511 0.0000
vt 0.0351 0.9129 0.0000
vt 0.0517 0.7643 0.0000
vt 0.2101 0.8283 0.0000
vt 0.1464 0.6551 0.0000
vt 0.2347 0.6909 0.0000
vt 0.5663 0.9645 0.0000
vt 0.4811 0.8369 0.0000
vt 0.6405 0.7630 0.0000
vt 0.6541 0.9297 0.0000
vt 0.4679 0.6955 0.0000
vt 0.5509 0.6550 0.0000
vt 0.2312 0.9818 0.0000
vt 0.4593 0.9866 0.0000
vt 0.6465 0.4390 0.0000
vt 0.7133 0.5013 0.0000
vt 0.4847 0.5974 0.0000
vt 0.8323 0.5817 0.0000
vt 0.9160 0.6995 0.0000
vt 0.7539 0.8589 0.0000
vt 0.9797 0.7782 0.0000
vt 0.8182 0.9370 0.0000
vt 0.4396 0.6641 0.0000
vt 0.4021 0.6647 0.0000
vt 0.3991 0.4955 0.0000
vt 0.4489 0.4946 0.0000
vt 0.3961 0.3270 0.0000
vt 0.4336 0.3264 0.0000
vt 0.3647 0.6654 0.0000
vt 0.3494 0.4963 0.0000
vt 0.3587 0.3277 0.0000
vt 0.3007 0.6595 0.0000
vt 0.2633 0.6600 0.0000
vt 0.2606 0.4908 0.0000
vt 0.3104 0.4900 0.0000
vt 0.2580 0.3223 0.0000
vt 0.2955 0.3217 0.0000
vt 0.2258 0.6606 0.0000
vt 0.2109 0.4916 0.0000
vt 0.2206 0.3229 0.0000
vt 0.8616 0.4002 0.0000
vt 0.8556 0.4419 0.0000
vt 0.8148 0.4363 0.0000
vt 0.9640 0.5670 0.0000
vt 0.9372 0.5833 0.0000
vt 0.9151 0.5617 0.0000
vt 0.9430 0.5453 0.0000
vt 0.7556 0.3658 0.0000
vt 0.8065 0.3252 0.0000
vt 0.8487 0.4839 0.0000
vt 0.7797 0.5430 0.0000
vt 0.7397 0.4917 0.0000
vt 0.8959 0.4473 0.0000
vt 0.9488 0.5199 0.0000
vt 0.9008 0.5598 0.0000
vt 0.9320 0.3403 0.0000
vt 0.9721 0.3915 0.0000
vt 0.9819 0.5673 0.0000
vt 0.9374 0.6069 0.0000
vt 0.9900 0.2420 0.0000
vt 0.7699 0.3108 0.0000
vt 0.7699 0.2412 0.0000
vt 0.7699 0.1731 0.0000
vt 0.9838 0.0869 0.0000
vt 0.7643 0.1036 0.0000
vt 0.7589 0.0357 0.0000
vt 0.0100 0.2806 0.0000
vt 0.0100 0.2412 0.0000
vt 0.0069 0.1641 0.0000
vt 0.0039 0.1264 0.0000
vt 0.0100 0.2033 0.0000
# 71 texture coords

g Box001
usemtl Material__51
s off
f 1/1/1 2/2/1 3/3/1 4/4/1 
f 4/4/2 3/3/2 5/5/2 6/6/2 
f 7/7/3 8/8/3 9/9/3 10/10/3 
f 8/8/4 11/11/4 12/12/4 9/9/4 
s 1
f 1/13/5 4/4/6 8/8/6 7/14/5 
f 4/4/6 6/6/7 11/11/7 8/8/6 
s off
f 6/15/8 5/16/8 12/12/8 11/17/8 
s 2
f 5/16/9 3/18/10 9/9/11 12/12/9 
f 3/18/10 2/19/12 10/20/12 9/9/11 
s off
f 2/19/13 1/21/13 7/22/13 10/20/13 
s 4
f 13/23/14 14/24/15 15/25/16 16/26/17 
f 16/26/17 15/25/16 17/27/18 18/28/19 
s 8
f 14/24/20 19/29/21 20/30/22 15/25/23 
f 15/25/23 20/30/22 21/31/24 17/27/25 
s 16
f 19/32/26 22/33/27 23/34/28 20/35/29 
f 20/35/29 23/34/28 24/36/30 21/37/31 
s 32
f 22/33/32 13/38/33 16/39/34 23/34/35 
f 23/34/35 16/39/34 18/40/36 24/36/37 
s off
f 25/41/38 26/42/38 27/43/38 
f 28/44/39 29/45/39 30/46/39 31/47/39 
s 128
f 25/41/40 27/43/6 32/48/6 33/49/40 
f 27/43/6 34/50/8 35/51/8 32/52/6 
f 34/50/8 36/53/10 37/54/10 35/55/8 
f 36/53/10 25/41/40 33/56/40 37/57/10 
s off
f 33/58/41 32/59/41 29/45/41 28/44/41 
f 32/59/42 35/55/42 30/46/42 29/45/42 
f 35/55/43 37/54/43 31/47/43 30/46/43 
f 37/54/44 33/58/44 28/44/44 31/47/44 
f 25/41/45 36/53/45 26/42/45 
f 26/42/46 34/50/46 27/43/46 
f 36/53/47 34/50/47 26/42/47 
f 38/60/48 39/61/48 40/62/48 
f 38/60/49 40/62/49 41/63/49 
f 38/64/50 41/63/50 42/65/50 
f 38/64/51 42/65/51 39/66/51 
f 40/62/52 39/61/52 43/67/52 44/68/52 
f 39/66/53 42/65/53 45/69/53 43/70/53 
f 42/65/54 41/63/54 46/71/54 45/69/54 
f 41/63/55 40/62/55 44/68/55 46/71/55 
# 31 polygons - 8 triangles

